<?xml version="1.0" encoding="UTF-8"?>
<svg version="1.1" xmlns="http://www.w3.org/2000/svg" width="512" height="512">
<path d="M0 0 C7.44619416 5.21593311 12.02169086 11.12323199 14 20 C14.80855187 27.34117403 12.92767715 33.61024821 10.65625 40.53125 C10.12070496 42.21510803 10.12070496 42.21510803 9.57434082 43.9329834 C8.39579489 47.62626511 7.19840281 51.31311827 6 55 C5.38472745 56.91146555 4.77139833 58.82354637 4.15837097 60.73573303 C1.52987846 68.93462434 -1.1275978 77.12399967 -3.78918457 85.31219482 C-5.75222024 91.35418465 -7.709992 97.39788426 -9.66830444 103.44140625 C-10.15979992 104.95819045 -10.65135661 106.47495481 -11.14297485 107.99169922 C-15.46184498 121.31724201 -19.7422694 134.65479086 -24 148 C-30.51794154 168.42401657 -37.11171327 188.82302791 -43.71862793 209.21838379 C-49.84629716 228.1348665 -55.9541469 247.05716579 -62 266 C-68.75088942 287.15185019 -75.58155191 308.27743255 -82.42544556 329.39932251 C-88.21828369 347.27805147 -93.98317531 365.16505553 -99.69268799 383.07061768 C-101.59122396 389.01899098 -103.4981563 394.96467479 -105.40667725 400.90985107 C-106.82563298 405.33093064 -108.24053978 409.75318741 -109.64404297 414.17919922 C-110.89476008 418.12180923 -112.15987953 422.05948031 -113.43716431 425.99356079 C-113.88515064 427.3817639 -114.32794707 428.771656 -114.76473999 430.16342163 C-117.96693442 440.3538454 -121.38329773 448.61769815 -130.99609375 454.03515625 C-138.07978617 457.44582297 -145.01770153 458.04769492 -152.5 455.875 C-160.96707188 452.73634404 -165.69079974 447.74706755 -170 440 C-171.18632201 437.30800498 -172.12248459 434.565593 -173.03096008 431.76908875 C-173.29657956 430.98032799 -173.56219903 430.19156724 -173.83586758 429.37890464 C-174.71476529 426.76062283 -175.57868174 424.13765418 -176.44262695 421.5144043 C-177.07301035 419.62619359 -177.70430588 417.7382872 -178.33644104 415.85066223 C-180.0440278 410.74268267 -181.73853262 405.63045124 -183.4304316 400.51725745 C-185.20378984 395.16451048 -186.98837833 389.81550926 -188.77153015 384.46601868 C-191.76178116 375.48970758 -194.74400273 366.51076164 -197.72094727 357.5300293 C-201.16517301 347.13979272 -204.61982748 336.75307204 -208.08055526 326.36832112 C-211.7647134 315.31292612 -215.44200503 304.2552569 -219.11688209 293.19677377 C-220.17713404 290.0076497 -221.23859392 286.81892974 -222.30028725 283.63028526 C-223.96509717 278.6289654 -225.62525576 273.62612506 -227.28177452 268.62205315 C-227.89137709 266.78286051 -228.50251286 264.94417526 -229.11526489 263.10602951 C-229.94900533 260.60404453 -230.77720975 258.10029555 -231.60395813 255.59599304 C-231.84956822 254.86312645 -232.09517831 254.13025986 -232.34823114 253.37518519 C-233.30593836 250.45723901 -234 248.09351027 -234 245 C-234.55591198 244.88525416 -235.11182396 244.77050832 -235.68458176 244.65228534 C-240.93456969 243.53270187 -245.99489085 242.14852187 -251.08300781 240.44610596 C-251.84388828 240.19545026 -252.60476875 239.94479455 -253.38870621 239.68654323 C-255.91159971 238.85417873 -258.43235068 238.01551617 -260.953125 237.17675781 C-262.77222542 236.57502517 -264.59144245 235.97364496 -266.4107666 235.37258911 C-271.33368646 233.7446799 -276.25462384 232.11085999 -281.17497253 230.47519779 C-284.25281506 229.45218933 -287.33100478 228.43023234 -290.40930176 227.40859222 C-300.05194793 224.20803292 -309.69339359 221.00389487 -319.33311081 217.79452443 C-330.44065842 214.09649167 -341.55203183 210.41026819 -352.66688919 206.73426557 C-361.27415103 203.88681582 -369.87791378 201.02896208 -378.4791069 198.16323352 C-383.60963391 196.45410393 -388.74151323 194.74934406 -393.8770752 193.05539703 C-398.70740333 191.46180525 -403.53324234 189.85529291 -408.35600281 188.23894882 C-410.12124617 187.6497661 -411.88802278 187.06515323 -413.65644836 186.48559189 C-426.54344287 182.25791372 -437.26695919 178.57595079 -444 166 C-446.77040572 160.08140595 -446.96150249 153.66572823 -445.3125 147.37890625 C-442.01803444 138.36030677 -437.53494163 133.43508798 -428.96246338 129.28964233 C-423.48138642 126.90357777 -417.81138819 125.13473588 -412.1171875 123.33203125 C-410.76106502 122.89625779 -409.40517487 122.45976074 -408.04949951 122.02259827 C-404.41681496 120.85332066 -400.78106574 119.69386388 -397.14466095 118.53621674 C-393.30594861 117.31218353 -389.47026355 116.07873572 -385.63427734 114.84619141 C-379.38853726 112.84052957 -373.14122641 110.83984391 -366.89257812 108.84326172 C-359.00362515 106.32240903 -351.11807844 103.79113672 -343.234375 101.25390625 C-340.94287269 100.51651523 -338.6513688 99.77912909 -336.35986328 99.04174805 C-335.24710022 98.68366058 -334.13433716 98.32557312 -332.987854 97.95663452 C-328.46088195 96.50057094 -323.93315055 95.0468766 -319.40542603 93.59315491 C-303.26533166 88.41076205 -287.13219614 83.20690897 -271 78 C-250.19181911 71.28401014 -229.37906902 64.58242745 -208.56152344 57.89550781 C-190.69169431 52.1550722 -172.82697683 46.39893567 -154.96498871 40.6341629 C-117.88000393 28.66568619 -80.7944538 16.69844775 -43.66558838 4.86663818 C-41.74241692 4.25376291 -39.81935932 3.64053022 -37.89642334 3.0269165 C-35.28032719 2.19239953 -32.66369941 1.35957384 -30.046875 0.52734375 C-29.2830954 0.28349442 -28.5193158 0.03964508 -27.73239136 -0.21159363 C-18.13471802 -3.25777817 -9.3599774 -4.81692469 0 0 Z M-65.95117188 46.74389648 C-66.56477727 46.94274161 -67.17838266 47.14158674 -67.81058216 47.34645748 C-69.86565677 48.01434538 -71.91710177 48.69276037 -73.96875 49.37109375 C-75.419552 49.8447267 -76.87058118 50.31766429 -78.32182312 50.78994751 C-81.4258518 51.80157309 -84.52835122 52.81771323 -87.62973022 53.83743286 C-92.52979593 55.44843163 -97.43310727 57.04937314 -102.3371582 58.64819336 C-103.98317549 59.18493358 -105.62918684 59.721692 -107.27519226 60.25846863 C-108.08874365 60.52377066 -108.90229504 60.78907269 -109.7404995 61.06241417 C-112.21220333 61.86887503 -114.68358112 62.67632748 -117.15486145 63.48408508 C-130.14879399 67.73044285 -143.16203835 71.91385289 -156.1875 76.0625 C-175.80942642 82.32044477 -195.40679422 88.65287481 -215 95 C-235.69723089 101.70464049 -256.40135751 108.38585942 -277.12747192 115.00082397 C-289.85856542 119.06463972 -302.58189665 123.15170443 -315.296875 127.265625 C-316.0001379 127.49315712 -316.7034008 127.72068924 -317.4279747 127.95511627 C-321.00385677 129.11212015 -324.57967085 130.26933404 -328.15545654 131.42663574 C-329.58280364 131.88859272 -331.01015146 132.35054749 -332.4375 132.8125 C-333.13695992 133.0388765 -333.83641983 133.26525299 -334.5570755 133.49848938 C-356.00472508 140.4392796 -377.46862337 147.322502 -399 154 C-399 154.66 -399 155.32 -399 156 C-376.77771257 163.46189218 -354.55144505 170.9118172 -332.32035446 178.34744358 C-321.99859711 181.80007015 -311.67818745 185.25662803 -301.36083984 188.72241211 C-292.37017306 191.742529 -283.37708489 194.75530083 -274.38098931 197.75921005 C-269.61596765 199.35059734 -264.85225551 200.94568166 -260.09142303 202.54956245 C-255.61296813 204.05818405 -251.13134856 205.55698404 -246.64707756 207.0482254 C-244.99948894 207.59806505 -243.35310248 208.1515218 -241.70801735 208.70880699 C-239.4660614 209.46769223 -237.22018901 210.21358262 -234.97283936 210.95631409 C-234.31913856 211.18101098 -233.66543777 211.40570788 -232.99192786 211.63721377 C-229.55213751 212.75733631 -227.41003533 213.22662832 -224 212 C-222.38375795 210.82514158 -222.38375795 210.82514158 -220.91532516 209.28446865 C-220.32911731 208.70423394 -219.74290945 208.12399922 -219.13893771 207.52618164 C-218.50469166 206.88319706 -217.87044561 206.24021249 -217.21697998 205.57774353 C-216.53569259 204.89901941 -215.8544052 204.2202953 -215.15247273 203.52100378 C-212.86365803 201.23714385 -210.5857538 198.94270114 -208.30761719 196.64819336 C-206.67222424 195.01195451 -205.03617103 193.37637535 -203.39950562 191.7414093 C-198.9509922 187.29375869 -194.51180662 182.83690092 -190.07419491 178.37837672 C-185.43772745 173.72319013 -180.7927963 169.07646464 -176.14874268 164.42884827 C-168.35253676 156.62486905 -160.56209268 148.81517041 -152.77539062 141.00170898 C-144.7548165 132.95360048 -136.73109951 124.90864687 -128.703125 116.86791992 C-128.20833463 116.37234138 -127.71354426 115.87676284 -127.20376024 115.36616676 C-124.72153858 112.88003001 -122.2392549 110.3939552 -119.75694036 107.90791118 C-99.16166901 87.28153648 -78.57740055 66.64420279 -58 46 C-61.02120373 44.48939813 -62.78194105 45.70505489 -65.95117188 46.74389648 Z M-35 69 C-56.34058439 90.08970512 -77.65306449 111.20748911 -98.9265698 132.36485117 C-101.43749153 134.86201495 -103.94865231 137.3589382 -106.45996094 139.85571289 C-106.95991823 140.35278476 -107.45987551 140.84985664 -107.97498302 141.36199129 C-116.07336387 149.41249311 -124.19095896 157.44335042 -132.31580873 165.46712797 C-140.65078188 173.69927358 -148.9647934 181.95215532 -157.25967348 190.22470003 C-161.92041533 194.87108032 -166.59040559 199.50723602 -171.283741 204.12071037 C-175.69880418 208.46124929 -180.08751505 212.82675993 -184.4571743 217.21298981 C-186.067397 218.82018002 -187.68710826 220.41792664 -189.31671715 222.00545692 C-191.53754581 224.17170734 -193.72199565 226.36909582 -195.90054321 228.57774353 C-196.55615726 229.20131632 -197.21177131 229.82488912 -197.88725245 230.46735805 C-201.14279909 233.79720847 -201.14279909 233.79720847 -202.00642145 238.20364004 C-201.51415978 240.56513734 -200.8277493 242.73556731 -200 245 C-199.63533316 246.21581788 -199.27066631 247.43163576 -198.89494896 248.68429661 C-198.49120363 249.89276721 -198.08745831 251.10123781 -197.67147827 252.34632874 C-197.44517404 253.0278047 -197.21886981 253.70928066 -196.98570788 254.41140741 C-196.23610073 256.66511936 -195.48013685 258.91664345 -194.72412109 261.16821289 C-194.18157413 262.7950065 -193.63942476 264.42193276 -193.09764099 266.04898071 C-191.63282436 270.44428799 -190.16248266 274.83772881 -188.69111204 279.23084569 C-187.1517305 283.83018061 -185.6174784 288.43122597 -184.08267212 293.03208923 C-181.17869867 301.73470174 -178.27014194 310.43577513 -175.35991919 319.13629955 C-172.04560814 329.04564949 -168.73643488 338.95671258 -165.42768359 348.86792004 C-158.62415477 369.24718604 -151.81420435 389.62430129 -145 410 C-144.34 410 -143.68 410 -143 410 C-142.63052246 408.84145508 -142.26104492 407.68291016 -141.88037109 406.48925781 C-133.31465719 379.63956301 -124.68535418 352.81118062 -116 326 C-109.6123858 306.28142769 -103.24124332 286.55809086 -96.9375 266.8125 C-90.87395542 247.82012702 -84.75927681 228.84461209 -78.625 209.875 C-76.83184263 204.32948806 -75.03882416 198.78393123 -73.24609375 193.23828125 C-73.02528263 192.55522289 -72.80447151 191.87216454 -72.57696915 191.16840744 C-67.1993718 174.531922 -61.8387707 157.88996506 -56.49926758 141.24121094 C-55.77815862 138.9928382 -55.0570486 136.7444658 -54.3359375 134.49609375 C-53.98248764 133.39387482 -53.62903778 132.29165588 -53.26487732 131.15603638 C-51.01146059 124.13449032 -48.74378476 117.11769431 -46.46702576 110.10368347 C-44.94112435 105.40015004 -43.420802 100.69482358 -41.90127563 95.98922729 C-41.18044036 93.76190549 -40.45698611 91.53542942 -39.73080444 89.30984497 C-38.73702802 86.26336713 -37.752247 83.21412281 -36.76953125 80.1640625 C-36.47160675 79.25870255 -36.17368225 78.35334259 -35.86672974 77.42054749 C-35.60367035 76.59808029 -35.34061096 75.7756131 -35.06958008 74.92822266 C-34.83741287 74.21332672 -34.60524567 73.49843079 -34.36604309 72.76187134 C-33.79006555 70.90336639 -33.79006555 70.90336639 -35 69 Z " fill="#000000" transform="translate(472,29)"/>
</svg>
